<?xml version="1.0" encoding="UTF-8"?>
<svg id="Layer_2" data-name="Layer 2" xmlns="http://www.w3.org/2000/svg" xmlns:xlink="http://www.w3.org/1999/xlink" viewBox="0 0 204.38 143.2">
  <defs>
    <style>
      .cls-1 {
        filter: url(#drop-shadow-2);
      }

      .cls-1, .cls-2 {
        fill: #8493a1;
      }

      .cls-3, .cls-4, .cls-5 {
        fill: #fff;
      }

      .cls-4 {
        filter: url(#drop-shadow-1);
      }

      .cls-5 {
        filter: url(#drop-shadow-3);
      }
    </style>
    <filter id="drop-shadow-1" x="0" y="0" width="126" height="129" filterUnits="userSpaceOnUse">
      <feOffset dx="5.67" dy="7"/>
      <feGaussianBlur result="blur" stdDeviation="5"/>
      <feFlood flood-color="#000" flood-opacity=".5"/>
      <feComposite in2="blur" operator="in"/>
      <feComposite in="SourceGraphic"/>
    </filter>
    <filter id="drop-shadow-2" x="123" y="0" width="64" height="129" filterUnits="userSpaceOnUse">
      <feOffset dx="5.67" dy="7"/>
      <feGaussianBlur result="blur-2" stdDeviation="5"/>
      <feFlood flood-color="#000" flood-opacity=".5"/>
      <feComposite in2="blur-2" operator="in"/>
      <feComposite in="SourceGraphic"/>
    </filter>
    <filter id="drop-shadow-3" x="62" y="0" width="125" height="129" filterUnits="userSpaceOnUse">
      <feOffset dx="5.67" dy="7"/>
      <feGaussianBlur result="blur-3" stdDeviation="5"/>
      <feFlood flood-color="#000" flood-opacity=".5"/>
      <feComposite in2="blur-3" operator="in"/>
      <feComposite in="SourceGraphic"/>
    </filter>
  </defs>
  <g id="Layer_2-2" data-name="Layer 2">
    <g>
      <g>
        <path class="cls-3" d="M10.51,137.73v-19.05h4.03l6.23,15.4,6.21-15.4h4v19.05h-2.78l.03-15.32-6.21,15.32h-2.58l-6.23-15.32.03,15.32h-2.72Z"/>
        <path class="cls-3" d="M33.97,121.43c-.33-.33-.49-.72-.49-1.17s.16-.84.49-1.16c.33-.32.72-.48,1.17-.48s.83.16,1.14.48c.31.32.46.7.46,1.16s-.15.84-.46,1.17c-.31.33-.69.49-1.14.49s-.84-.16-1.17-.49ZM36.5,137.73h-2.75v-13.88h2.75v13.88Z"/>
        <path class="cls-3" d="M41.49,131.78c.06.32.15.62.27.91.12.29.26.56.44.82.17.25.36.49.57.71.21.22.44.41.69.58.25.17.52.32.8.45s.58.22.88.29c.31.06.63.1.95.1.8,0,1.53-.19,2.2-.56.67-.37,1.23-.87,1.69-1.48l2.01,1.47c-.67.89-1.5,1.61-2.48,2.16s-2.12.83-3.43.83c-.47,0-.93-.04-1.38-.12s-.87-.2-1.28-.34-.79-.32-1.16-.53c-.36-.21-.71-.44-1.03-.71-.33-.26-.63-.55-.9-.87-.27-.32-.51-.65-.72-1.01-.21-.35-.39-.73-.53-1.13-.15-.4-.26-.81-.34-1.24-.08-.43-.12-.86-.12-1.29s.04-.89.12-1.32c.08-.43.19-.83.34-1.23.14-.39.32-.77.53-1.13.21-.36.45-.7.72-1.02s.57-.61.9-.87c.33-.26.67-.5,1.03-.71.36-.21.75-.39,1.16-.53.41-.15.83-.26,1.28-.34s.9-.12,1.38-.12c1.31,0,2.45.28,3.43.83.98.55,1.81,1.28,2.48,2.19l-2.01,1.44c-.45-.62-1.02-1.11-1.69-1.47-.67-.36-1.41-.54-2.2-.54-1.31,0-2.42.46-3.33,1.39s-1.37,2.07-1.37,3.43c0,.33.03.65.1.97Z"/>
        <path class="cls-3" d="M56.45,137.73h-2.75v-19.05h2.75v6.7c.49-.56,1.09-1.01,1.8-1.33s1.48-.49,2.31-.49c.4,0,.78.04,1.14.11.36.07.7.17,1.02.3.32.13.62.29.9.48s.54.41.78.65c.24.24.44.51.63.79.18.28.33.58.46.9s.22.65.29,1.01.1.71.1,1.08v8.87h-2.75v-8.33c0-1-.3-1.81-.9-2.44s-1.39-.94-2.37-.94-1.79.32-2.44.95c-.64.64-.97,1.47-.97,2.5v8.25Z"/>
        <path class="cls-3" d="M68.13,129.51c.07-.42.18-.82.33-1.21.15-.39.32-.76.52-1.12.2-.35.43-.69.68-1.01.25-.32.54-.61.84-.88.31-.27.64-.51.99-.72.35-.21.72-.39,1.12-.53.39-.15.8-.26,1.22-.34.43-.08.87-.12,1.32-.12s.88.04,1.29.11c.41.07.81.18,1.2.33.39.15.75.32,1.09.52.34.2.65.43.95.69.3.26.58.55.83.86.25.31.48.64.67.99.19.35.35.73.49,1.13.14.4.24.82.31,1.25s.11.88.11,1.33v.9h-11.29c.18,1.12.7,2.06,1.56,2.82.86.75,1.87,1.13,3.04,1.13.8,0,1.54-.17,2.22-.5.68-.34,1.27-.85,1.78-1.54l1.99,1.47c-.69.93-1.55,1.65-2.57,2.18-1.03.53-2.16.79-3.42.79-.45,0-.9-.04-1.35-.11-.44-.07-.87-.18-1.27-.33s-.78-.32-1.14-.52c-.36-.2-.71-.43-1.03-.69-.33-.26-.62-.55-.88-.87-.26-.32-.5-.65-.71-1.01-.21-.35-.39-.73-.54-1.13s-.27-.82-.34-1.25c-.07-.44-.11-.88-.11-1.33s.04-.86.11-1.28ZM72.38,126.95c-.79.65-1.3,1.51-1.54,2.56h8.46c-.24-1.05-.74-1.9-1.52-2.56s-1.68-.98-2.69-.98-1.92.33-2.71.98Z"/>
        <path class="cls-3" d="M84.24,137.73v-19.05h2.75v19.05h-2.75Z"/>
        <path class="cls-3" d="M90.2,131.04c.8-.71,1.91-1.11,3.35-1.2l4.33-.33v-.9c0-.78-.25-1.4-.75-1.85s-1.2-.68-2.11-.68c-.67,0-1.32.11-1.93.33s-1.22.55-1.8,1.01l-1.22-1.99c.73-.62,1.54-1.07,2.44-1.37.9-.3,1.86-.45,2.9-.45,1.56,0,2.81.42,3.76,1.27s1.42,1.97,1.42,3.39v6.26c0,.25.07.45.2.58.14.14.34.2.61.2h.71v2.42h-1.36c-.67,0-1.24-.15-1.7-.46-.46-.31-.79-.73-.97-1.28-.45.64-1.06,1.13-1.81,1.5s-1.59.54-2.52.54c-1.36,0-2.49-.39-3.39-1.17-.9-.78-1.35-1.77-1.35-2.97s.4-2.15,1.2-2.86ZM92.37,135.32c.49.37,1.12.56,1.91.56.98,0,1.82-.3,2.53-.91.71-.61,1.06-1.35,1.06-2.22v-1.14l-3.92.33c-.76.05-1.34.25-1.73.59-.39.34-.58.79-.58,1.35,0,.6.25,1.08.74,1.46Z"/>
        <path class="cls-3" d="M116,137.73h-2.75v-8.33c0-1-.3-1.81-.9-2.44s-1.39-.94-2.37-.94-1.79.32-2.44.95c-.64.64-.97,1.47-.97,2.5v8.25h-2.75v-13.88h2.75v1.52c.49-.56,1.08-1.01,1.78-1.33s1.46-.49,2.3-.49c.4,0,.78.04,1.14.11.36.07.71.17,1.03.3.33.13.63.29.91.48s.54.41.78.65c.24.24.44.51.63.79.18.28.33.58.46.9s.22.65.29,1.01.1.71.1,1.08v8.87Z"/>
        <path class="cls-3" d="M132.95,138.17c0,1.54-.46,2.77-1.39,3.67-.93.91-2.18,1.36-3.76,1.36h-3.48v-2.34h2.88c.98,0,1.72-.25,2.22-.75s.75-1.22.75-2.16v-2.04c-.62.62-1.34,1.1-2.18,1.44-.83.34-1.71.52-2.64.52-.45,0-.89-.04-1.31-.11-.42-.07-.83-.18-1.22-.33-.4-.15-.78-.32-1.13-.53-.35-.21-.69-.44-1.01-.71s-.61-.55-.87-.86-.5-.64-.71-.99c-.21-.35-.38-.73-.53-1.13-.15-.4-.25-.81-.33-1.22-.07-.42-.11-.85-.11-1.31s.04-.86.11-1.28c.07-.42.19-.82.34-1.21.15-.39.34-.76.54-1.12.21-.35.44-.69.71-.99.26-.31.55-.59.86-.86.31-.26.64-.5,1.01-.71.36-.21.74-.39,1.13-.53.39-.15.79-.25,1.21-.33.42-.07.85-.11,1.31-.11.94,0,1.83.18,2.67.54.83.36,1.56.85,2.18,1.47v-1.71h2.75v14.32ZM120.97,131.65c.06.32.15.62.27.9.12.28.26.55.44.8.17.25.36.49.57.71.21.22.44.41.69.58.25.17.52.32.8.44.28.12.57.21.87.27.3.06.61.1.94.1s.64-.03.95-.1.6-.15.88-.27c.28-.12.54-.26.79-.44.25-.17.48-.37.69-.58s.41-.45.57-.71c.16-.25.3-.52.42-.8.12-.28.21-.58.27-.9.06-.32.09-.64.09-.97s-.03-.64-.09-.95c-.06-.31-.15-.6-.27-.88s-.26-.55-.44-.8c-.17-.25-.36-.48-.57-.69-.21-.21-.44-.4-.69-.57s-.52-.32-.8-.44-.57-.21-.87-.27c-.3-.06-.61-.1-.94-.1s-.64.03-.94.1c-.3.06-.59.15-.87.27s-.55.26-.8.44-.49.37-.69.58c-.21.22-.4.45-.57.69-.17.25-.32.51-.44.79s-.21.58-.27.88c-.06.31-.1.63-.1.95s.03.65.1.97Z"/>
        <path class="cls-3" d="M135.21,129.51c.07-.42.18-.82.33-1.21.15-.39.32-.76.52-1.12.2-.35.43-.69.68-1.01.25-.32.54-.61.84-.88.31-.27.64-.51.99-.72.35-.21.72-.39,1.12-.53.39-.15.8-.26,1.22-.34.43-.08.87-.12,1.32-.12s.88.04,1.29.11c.41.07.81.18,1.2.33.39.15.75.32,1.09.52.34.2.65.43.95.69.3.26.58.55.83.86.25.31.48.64.67.99.19.35.35.73.49,1.13.14.4.24.82.31,1.25s.11.88.11,1.33v.9h-11.29c.18,1.12.7,2.06,1.56,2.82.86.75,1.87,1.13,3.04,1.13.8,0,1.54-.17,2.22-.5.68-.34,1.27-.85,1.78-1.54l1.99,1.47c-.69.93-1.55,1.65-2.57,2.18-1.03.53-2.16.79-3.42.79-.45,0-.9-.04-1.35-.11-.44-.07-.87-.18-1.27-.33s-.78-.32-1.14-.52c-.36-.2-.71-.43-1.03-.69-.33-.26-.62-.55-.88-.87-.26-.32-.5-.65-.71-1.01-.21-.35-.39-.73-.54-1.13s-.27-.82-.34-1.25c-.07-.44-.11-.88-.11-1.33s.04-.86.11-1.28ZM139.47,126.95c-.79.65-1.3,1.51-1.54,2.56h8.46c-.24-1.05-.74-1.9-1.52-2.56s-1.68-.98-2.69-.98-1.92.33-2.71.98Z"/>
        <path class="cls-3" d="M151.33,137.73v-19.05h2.75v19.05h-2.75Z"/>
        <path class="cls-3" d="M171.02,132.1c-.08.42-.2.83-.34,1.22-.15.4-.33.78-.54,1.13-.22.35-.46.69-.74,1.01-.27.32-.57.61-.9.88-.33.27-.68.51-1.05.72-.37.21-.76.39-1.17.53s-.83.26-1.27.34-.88.12-1.33.12-.9-.04-1.33-.12-.86-.2-1.27-.34-.8-.32-1.17-.53c-.37-.21-.72-.45-1.05-.72-.33-.27-.63-.57-.9-.88-.27-.32-.52-.65-.74-1.01-.22-.35-.4-.73-.54-1.13-.15-.4-.26-.81-.34-1.22-.08-.42-.12-.85-.12-1.31s.04-.89.12-1.31c.08-.42.19-.83.34-1.23.14-.4.33-.78.54-1.13.22-.35.46-.69.74-1.01.27-.32.57-.61.9-.87.33-.26.67-.5,1.05-.71.37-.21.76-.39,1.17-.53.41-.15.83-.26,1.27-.34s.88-.12,1.33-.12.9.04,1.33.12.86.2,1.27.34c.41.15.8.32,1.17.53.37.21.72.44,1.05.71.33.26.63.55.9.87.27.32.52.65.74,1.01.22.35.4.73.54,1.13.15.4.26.81.34,1.23.08.42.12.85.12,1.31s-.04.89-.12,1.31ZM167.02,127.4c-.92-.93-2.03-1.4-3.33-1.4s-2.42.47-3.33,1.4-1.37,2.06-1.37,3.39.46,2.48,1.37,3.42,2.03,1.4,3.33,1.4,2.42-.47,3.33-1.4c.92-.93,1.37-2.07,1.37-3.42s-.46-2.45-1.37-3.39Z"/>
        <path class="cls-3" d="M196.31,137.73h-3.05l-2.07-5.01h-8.85l-2.07,5.01h-2.97l8.06-19.05h2.86l8.08,19.05ZM190.19,130.22l-3.43-8.3-3.43,8.3h6.86Z"/>
        <path class="cls-3" d="M197.68,137.73v-19.05h2.86v19.05h-2.86Z"/>
      </g>
      <rect class="cls-2" x="71.59" y="8.43" width="33.14" height="98.37"/>
      <polygon class="cls-4" points="104.81 8.53 66.01 8.53 10.31 106.81 49.29 106.81 104.81 8.53"/>
      <polyline class="cls-2" points="167.35 71.09 204.38 71.27 167.32 106.81"/>
      <rect class="cls-1" x="132.99" y="8.43" width="33.14" height="98.37"/>
      <polygon class="cls-5" points="166.1 8.53 127.29 8.53 71.59 106.81 110.58 106.81 166.1 8.53"/>
      <g>
        <path class="cls-3" d="M142.38,99.18c.93,0,1.65-.72,1.65-1.78v-4.14h1.01v6.71h-1v-.62c-.45.47-1.07.74-1.77.74-1.44,0-2.54-1.04-2.54-2.62v-4.2h1.01v4.14c0,1.08.71,1.78,1.65,1.78"/>
        <path class="cls-3" d="M145.78,93.26h.97v2.44c.44-.45,1.05-.73,1.73-.73,1.44,0,2.57,1.14,2.57,2.56s-1.13,2.55-2.57,2.55c-.68,0-1.3-.28-1.74-.73v.61h-.96v-6.71ZM148.42,99.23c.92,0,1.68-.76,1.68-1.7s-.76-1.7-1.68-1.7-1.69.75-1.69,1.7.75,1.7,1.69,1.7"/>
        <path class="cls-3" d="M153.94,94.99c1.41,0,2.44,1.08,2.44,2.54v.32h-3.98c.13.8.8,1.39,1.62,1.39.57,0,1.04-.23,1.41-.72l.7.52c-.49.65-1.22,1.04-2.11,1.04-1.47,0-2.6-1.09-2.6-2.55,0-1.38,1.08-2.54,2.51-2.54M152.43,97.08h2.98c-.16-.75-.77-1.25-1.48-1.25s-1.32.5-1.49,1.25"/>
        <path class="cls-3" d="M158.98,95.95c-.63,0-1.09.49-1.09,1.25v2.78h-.97v-4.89h.96v.6c.24-.39.63-.64,1.17-.64h.34v.9h-.4Z"/>
      </g>
    </g>
  </g>
</svg>